<svg width="150" height="62" viewBox="0 0 150 62" fill="none" xmlns="http://www.w3.org/2000/svg">
<path d="M74.3521 0L76.4637 9.27421C77.6538 14.5014 82.2321 18.2596 87.591 18.4084L149.204 20.1188L87.591 21.8293C82.2321 21.978 77.6538 25.7362 76.4637 30.9634L74.3521 40.2376L72.2401 30.9616C71.0502 25.7352 66.4732 21.9773 61.1152 21.8275L0 20.1188L61.1152 18.4101C66.4732 18.2603 71.0502 14.5024 72.2401 9.27603L74.3521 0Z" fill="white"/>
<path d="M3.92348 58.3142C3.23174 58.3142 2.63367 58.2241 2.12927 58.044C1.63208 57.8566 1.17092 57.59 0.745786 57.2441L1.02681 56.8983C1.13489 56.7686 1.25378 56.7037 1.38349 56.7037C1.46275 56.7037 1.56363 56.7397 1.68612 56.8118C2.32743 57.2153 3.0624 57.4171 3.89106 57.4171C4.48912 57.4171 4.95389 57.2874 5.28535 57.028C5.62402 56.7613 5.79335 56.4227 5.79335 56.012C5.79335 55.7093 5.69968 55.4679 5.51233 55.2878C5.32498 55.1004 5.07999 54.9563 4.77735 54.8555C4.48192 54.7546 4.10362 54.6645 3.64246 54.5852C3.07321 54.4844 2.60124 54.3799 2.22655 54.2718C1.85185 54.1637 1.50238 53.9583 1.17813 53.6557C0.85387 53.3459 0.691743 52.9207 0.691743 52.3803C0.691743 51.8327 0.835856 51.3895 1.12408 51.0509C1.41231 50.7122 1.77259 50.4708 2.20493 50.3267C2.64448 50.1826 3.09843 50.1105 3.5668 50.1105C4.13605 50.1105 4.63684 50.1862 5.06918 50.3375C5.50873 50.4888 5.91584 50.6978 6.29054 50.9644L6.03114 51.3427C5.93026 51.494 5.80776 51.5697 5.66365 51.5697C5.56277 51.5697 5.46549 51.5408 5.37182 51.4832C5.07639 51.3175 4.78456 51.1986 4.49633 51.1265C4.2081 51.0473 3.87664 51.0076 3.50195 51.0076C3.22813 51.0076 2.95432 51.0545 2.6805 51.1481C2.40669 51.2346 2.17611 51.3823 1.98876 51.5913C1.80141 51.793 1.70774 52.0488 1.70774 52.3587C1.70774 52.6541 1.84105 52.8955 2.10765 53.0829C2.37426 53.2702 2.6697 53.4071 2.99395 53.4936C3.31821 53.58 3.74334 53.6773 4.26935 53.7854C4.74493 53.8791 5.15205 53.9908 5.49071 54.1205C5.83658 54.243 6.13922 54.4591 6.39862 54.769C6.66523 55.0716 6.79854 55.4859 6.79854 56.012C6.79854 56.7758 6.52833 57.3522 5.9879 57.7413C5.44748 58.1232 4.75934 58.3142 3.92348 58.3142ZM13.8806 51.0833H11.4703V50.7158C11.4703 50.5645 11.51 50.4492 11.5892 50.3699C11.6757 50.2835 11.7946 50.2402 11.9459 50.2402H17.2853V50.6077C17.2853 50.759 17.2421 50.8779 17.1556 50.9644C17.0763 51.0437 16.961 51.0833 16.8097 51.0833H14.8858V57.6765C14.8858 57.8278 14.8426 57.9467 14.7561 58.0331C14.6769 58.1124 14.5616 58.152 14.4102 58.152H13.8806V51.0833ZM22.6914 50.2402H28.2686V50.6077C28.2686 50.759 28.2253 50.8779 28.1389 50.9644C28.0596 51.0437 27.9443 51.0833 27.793 51.0833H23.7074V53.807H27.4147V54.1961C27.4147 54.3475 27.3715 54.4663 27.285 54.5528C27.2057 54.6321 27.0905 54.6717 26.9391 54.6717H23.7074V57.2874H27.793C27.9443 57.2874 28.0596 57.3306 28.1389 57.4171C28.2253 57.4963 28.2686 57.6116 28.2686 57.7629V58.152H22.6914V50.2402ZM34.1315 50.2402H34.6719C34.8233 50.2402 34.9385 50.2835 35.0178 50.3699C35.1043 50.4492 35.1475 50.5645 35.1475 50.7158V57.3198H39.1034C39.2547 57.3198 39.37 57.363 39.4493 57.4495C39.5358 57.5287 39.579 57.644 39.579 57.7954V58.152H34.1315V50.2402ZM45.1177 50.2402H45.6582C45.8095 50.2402 45.9248 50.2835 46.004 50.3699C46.0905 50.4492 46.1337 50.5645 46.1337 50.7158V57.3198H50.0897C50.241 57.3198 50.3563 57.363 50.4355 57.4495C50.522 57.5287 50.5652 57.644 50.5652 57.7954V58.152H45.1177V50.2402ZM59.3317 50.2402H59.5478L63.4389 58.152H62.6715C62.4121 58.152 62.2283 58.0331 62.1203 57.7954L61.5798 56.6497H57.2889L56.7484 57.7954C56.6404 58.0331 56.4566 58.152 56.1972 58.152H55.4406L59.3317 50.2402ZM61.1583 55.7958L59.4506 52.1317L57.7212 55.7958H61.1583ZM68.9266 50.2402H72.4069C72.9113 50.2402 73.3616 50.3519 73.758 50.5753C74.1543 50.7987 74.4641 51.1085 74.6875 51.5048C74.9109 51.9011 75.0225 52.3551 75.0225 52.8667C75.0225 53.544 74.846 54.1061 74.4929 54.5528C74.1471 54.9924 73.6751 55.2806 73.077 55.4175L75.109 58.152H74.2768C74.0318 58.152 73.8372 58.0548 73.6931 57.8602L71.9746 55.4823H69.9426V57.6765C69.9426 57.8278 69.8993 57.9467 69.8129 58.0331C69.7336 58.1124 69.6183 58.152 69.467 58.152H68.9266V50.2402ZM72.2231 54.6069C72.778 54.6069 73.2175 54.4627 73.5418 54.1745C73.866 53.8863 74.0282 53.4503 74.0282 52.8667C74.0282 52.6217 73.9741 52.3623 73.866 52.0885C73.7652 51.8147 73.585 51.5805 73.3256 51.3859C73.0662 51.1842 72.7239 51.0833 72.2988 51.0833H69.9426V54.6069H72.2231ZM88.3159 50.2402H89.0509C89.3175 50.2402 89.5012 50.3591 89.6021 50.5969L91.98 56.0228L94.3578 50.5969C94.4587 50.3591 94.6425 50.2402 94.9091 50.2402H95.6657L92.0772 58.152H91.8719L88.3159 50.2402ZM101.923 58.152C101.772 58.152 101.653 58.1124 101.567 58.0331C101.487 57.9467 101.448 57.8278 101.448 57.6765V50.2402H101.988C102.14 50.2402 102.255 50.2835 102.334 50.3699C102.421 50.4492 102.464 50.5645 102.464 50.7158V58.152H101.923ZM111.791 58.3142C111.099 58.3142 110.501 58.2241 109.997 58.044C109.5 57.8566 109.038 57.59 108.613 57.2441L108.894 56.8983C109.002 56.7686 109.121 56.7037 109.251 56.7037C109.33 56.7037 109.431 56.7397 109.554 56.8118C110.195 57.2153 110.93 57.4171 111.758 57.4171C112.357 57.4171 112.821 57.2874 113.153 57.028C113.491 56.7613 113.661 56.4227 113.661 56.012C113.661 55.7093 113.567 55.4679 113.38 55.2878C113.192 55.1004 112.947 54.9563 112.645 54.8555C112.349 54.7546 111.971 54.6645 111.51 54.5852C110.941 54.4844 110.469 54.3799 110.094 54.2718C109.719 54.1637 109.37 53.9583 109.046 53.6557C108.721 53.3459 108.559 52.9207 108.559 52.3803C108.559 51.8327 108.703 51.3895 108.992 51.0509C109.28 50.7122 109.64 50.4708 110.072 50.3267C110.512 50.1826 110.966 50.1105 111.434 50.1105C112.003 50.1105 112.504 50.1862 112.937 50.3375C113.376 50.4888 113.783 50.6978 114.158 50.9644L113.899 51.3427C113.798 51.494 113.675 51.5697 113.531 51.5697C113.43 51.5697 113.333 51.5408 113.239 51.4832C112.944 51.3175 112.652 51.1986 112.364 51.1265C112.076 51.0473 111.744 51.0076 111.369 51.0076C111.096 51.0076 110.822 51.0545 110.548 51.1481C110.274 51.2346 110.044 51.3823 109.856 51.5913C109.669 51.793 109.575 52.0488 109.575 52.3587C109.575 52.6541 109.708 52.8955 109.975 53.0829C110.242 53.2702 110.537 53.4071 110.861 53.4936C111.186 53.58 111.611 53.6773 112.137 53.7854C112.612 53.8791 113.019 53.9908 113.358 54.1205C113.704 54.243 114.007 54.4591 114.266 54.769C114.533 55.0716 114.666 55.4859 114.666 56.012C114.666 56.7758 114.396 57.3522 113.855 57.7413C113.315 58.1232 112.627 58.3142 111.791 58.3142ZM121.204 58.152C121.053 58.152 120.934 58.1124 120.848 58.0331C120.768 57.9467 120.729 57.8278 120.729 57.6765V50.2402H121.269C121.42 50.2402 121.536 50.2835 121.615 50.3699C121.701 50.4492 121.745 50.5645 121.745 50.7158V58.152H121.204ZM131.846 58.3142C131.082 58.3142 130.391 58.1304 129.771 57.7629C129.159 57.3954 128.676 56.8983 128.323 56.2714C127.977 55.6445 127.804 54.9527 127.804 54.1961C127.804 53.4467 127.977 52.7586 128.323 52.1317C128.676 51.4976 129.159 50.9968 129.771 50.6293C130.391 50.2618 131.082 50.0781 131.846 50.0781C132.617 50.0781 133.313 50.2618 133.932 50.6293C134.552 50.9968 135.035 51.4976 135.381 52.1317C135.734 52.7586 135.91 53.4467 135.91 54.1961C135.91 54.9527 135.734 55.6445 135.381 56.2714C135.035 56.8983 134.552 57.3954 133.932 57.7629C133.313 58.1304 132.617 58.3142 131.846 58.3142ZM131.846 57.4063C132.394 57.4063 132.902 57.2585 133.37 56.9631C133.839 56.6677 134.21 56.275 134.483 55.785C134.757 55.2878 134.894 54.7582 134.894 54.1961C134.894 53.6341 134.757 53.1081 134.483 52.6181C134.21 52.1281 133.839 51.7354 133.37 51.44C132.902 51.1445 132.394 50.9968 131.846 50.9968C131.306 50.9968 130.801 51.1445 130.333 51.44C129.865 51.7354 129.494 52.1317 129.22 52.6289C128.946 53.1189 128.809 53.6413 128.809 54.1961C128.809 54.7582 128.946 55.2878 129.22 55.785C129.494 56.275 129.865 56.6677 130.333 56.9631C130.801 57.2585 131.306 57.4063 131.846 57.4063ZM141.682 50.2402H141.887L147.356 55.8823V50.7158C147.356 50.5645 147.396 50.4492 147.475 50.3699C147.562 50.2835 147.681 50.2402 147.832 50.2402H148.362V58.152H148.178L142.687 52.4668V57.6765C142.687 57.8278 142.644 57.9467 142.558 58.0331C142.478 58.1124 142.363 58.152 142.212 58.152H141.682V50.2402Z" fill="white"/>
</svg>
