<svg width="40" height="40" viewBox="0 0 40 40" fill="none" xmlns="http://www.w3.org/2000/svg">
<path d="M40 20L40 40L20 40C20 40 27.2434 38.2101 33.0695 33.7639C38.8957 29.3176 40 20 40 20Z" fill="black"/>
<path d="M20 40C22.6264 40 25.2272 39.4827 27.6537 38.4776C30.0802 37.4725 32.285 35.9993 34.1421 34.1421C35.9993 32.285 37.4725 30.0802 38.4776 27.6537C39.4827 25.2272 40 22.6264 40 20L37.7599 20C37.7599 22.3323 37.3005 24.6417 36.408 26.7964C35.5154 28.9511 34.2073 30.909 32.5581 32.5581C30.909 34.2073 28.9511 35.5154 26.7964 36.408C24.6417 37.3005 22.3323 37.7599 20 37.7599L20 40Z" fill="white"/>
</svg>
