<svg xmlns="http://www.w3.org/2000/svg" width="348" height="79" viewBox="0 0 348 79" fill="none">
<mask id="path-1-inside-1_2947_42" fill="white">
<path d="M29.4995 0.5H318.119V53.1812C318.119 66.9883 306.926 78.1812 293.119 78.1812H54.4995C40.6924 78.1812 29.4995 66.9883 29.4995 53.1812V0.5Z"/>
</mask>
<path d="M29.4995 0.5H318.119V53.1812C318.119 66.9883 306.926 78.1812 293.119 78.1812H54.4995C40.6924 78.1812 29.4995 66.9883 29.4995 53.1812V0.5Z" fill="black"/>
<path d="M29.4995 0.5H318.119H29.4995ZM319.119 53.1812C319.119 67.5406 307.478 79.1812 293.119 79.1812H54.4995C40.1401 79.1812 28.4995 67.5406 28.4995 53.1812H30.4995C30.4995 66.436 41.2447 77.1812 54.4995 77.1812H293.119C306.373 77.1812 317.119 66.436 317.119 53.1812H319.119ZM54.4995 79.1812C40.1401 79.1812 28.4995 67.5406 28.4995 53.1812V0.5H30.4995V53.1812C30.4995 66.436 41.2447 77.1812 54.4995 77.1812V79.1812ZM319.119 0.5V53.1812C319.119 67.5406 307.478 79.1812 293.119 79.1812V77.1812C306.373 77.1812 317.119 66.436 317.119 53.1812V0.5H319.119Z" fill="white" mask="url(#path-1-inside-1_2947_42)"/>
<path d="M317.641 30.5L304.706 30.5L304.706 0.500057L347.641 0.500001C347.641 0.500001 334.711 2.02764 326.604 9.346C318.497 16.6644 317.641 30.5 317.641 30.5Z" fill="black"/>
<path d="M317.641 30.5C317.641 13.9315 331.072 0.5 347.641 0.5" stroke="white"/>
<path d="M29.9998 30.5L42.9346 30.5L42.9346 0.500057L-0.000168204 0.500001C-0.000168204 0.500001 12.9295 2.02764 21.0364 9.346C29.1433 16.6644 29.9998 30.5 29.9998 30.5Z" fill="black"/>
<path d="M30 30.5C30 13.9315 16.5685 0.5 -3.57746e-07 0.5" stroke="white"/>
</svg>